<svg width="24" height="24" viewBox="0 0 24 24" fill="none" xmlns="http://www.w3.org/2000/svg">
<path d="M11 2C15.9706 2 20 6.02944 20 11C20 13.125 19.2639 15.0785 18.0322 16.6182L21.707 20.293C22.0975 20.6835 22.0975 21.3165 21.707 21.707C21.3165 22.0975 20.6835 22.0975 20.293 21.707L16.6182 18.0322C15.0785 19.2639 13.125 20 11 20C6.02944 20 2 15.9706 2 11C2 6.02944 6.02944 2 11 2ZM11 7C10.4477 7 10 7.44772 10 8V10H8C7.44772 10 7 10.4477 7 11C7 11.5523 7.44772 12 8 12H10V14C10 14.5523 10.4477 15 11 15C11.5523 15 12 14.5523 12 14V12H14C14.5523 12 15 11.5523 15 11C15 10.4477 14.5523 10 14 10H12V8C12 7.44772 11.5523 7 11 7Z" fill="black"/>
</svg>
