<svg width="24" height="24" viewBox="0 0 24 24" fill="none" xmlns="http://www.w3.org/2000/svg">
<path d="M12.0469 1.00098C12.5406 1.02434 12.9754 1.45843 12.999 1.95216C13.0002 1.97601 13 1.98933 13 2.01563V6.43165C13 6.68403 12.9996 6.93052 13.0166 7.13868C13.0353 7.36719 13.0796 7.63695 13.2178 7.90821C13.4095 8.28447 13.7155 8.5905 14.0918 8.78223C14.3631 8.92045 14.6328 8.96471 14.8613 8.98341C15.0695 9.00041 15.316 9.00004 15.5684 9.00001H19.9844C20.0106 9.00001 20.024 8.99985 20.0479 9.00098C20.5416 9.02465 20.9757 9.45936 20.999 9.95313C21.0001 9.97671 21 9.98454 21 10V17.2412C21 18.0462 21.0003 18.7108 20.9561 19.252C20.9101 19.814 20.8117 20.3311 20.5645 20.8164C20.181 21.5689 19.5689 22.181 18.8164 22.5645C18.3311 22.8117 17.814 22.9101 17.252 22.9561C16.7108 23.0003 16.0462 23 15.2412 23H8.75879C7.95383 23 7.28924 23.0003 6.74805 22.9561C6.18599 22.9101 5.6689 22.8117 5.18359 22.5645C4.43109 22.181 3.81902 21.5689 3.43555 20.8164C3.18827 20.3311 3.08987 19.814 3.04395 19.252C2.99973 18.7108 2.99999 18.0462 3 17.2412V6.7588C2.99999 5.95384 2.99973 5.28924 3.04395 4.74805C3.08988 4.186 3.18827 3.66891 3.43555 3.1836C3.81902 2.4311 4.43109 1.81902 5.18359 1.43555C5.6689 1.18828 6.18599 1.08988 6.74805 1.04395C7.28923 0.999736 7.95384 0.999996 8.75879 1.00001H12C12.0155 1 12.0233 0.999875 12.0469 1.00098ZM8 17C7.44772 17 7 17.4477 7 18C7 18.5523 7.44772 19 8 19H16C16.5523 19 17 18.5523 17 18C17 17.4477 16.5523 17 16 17H8ZM8 13C7.44772 13 7 13.4477 7 14C7 14.5523 7.44772 15 8 15H16C16.5523 15 17 14.5523 17 14C17 13.4477 16.5523 13 16 13H8ZM8 9.00001C7.44772 9.00001 7 9.44772 7 10C7 10.5523 7.44772 11 8 11H10C10.5523 11 11 10.5523 11 10C11 9.44772 10.5523 9.00001 10 9.00001H8ZM15.6172 2.30665C15.7542 2.33969 15.8499 2.43563 16.041 2.62696L19.373 5.95899C19.5644 6.15013 19.6603 6.24584 19.6934 6.38282C19.7399 6.57653 19.6386 6.82264 19.4688 6.92677C19.3485 7.00039 19.2015 7.00001 18.9082 7.00001H15.7998C15.5202 7 15.3803 6.99966 15.2734 6.94532C15.1794 6.89738 15.1026 6.82065 15.0547 6.72657C15.0003 6.61967 15 6.47987 15 6.2002V3.0918C15 2.79834 15.0005 2.65149 15.0742 2.53126C15.1784 2.36159 15.4236 2.26011 15.6172 2.30665Z" fill="black"/>
</svg>
