<svg width="24" height="24" viewBox="0 0 24 24" fill="none" xmlns="http://www.w3.org/2000/svg">
<path d="M12 1C18.0751 1 23 5.92487 23 12C23 12.184 22.9953 12.3669 22.9863 12.5488C22.9204 13.8867 21.1398 13.4664 20.2998 13.3408C19.3713 13.2019 18.129 12.9326 17.0527 12.3945C16.6254 12.1808 16.1397 11.7481 15.7441 11.2305C15.3361 10.6964 14.9483 9.9742 14.8232 9.12891C14.6945 8.25848 14.854 7.30436 15.4756 6.38184C15.8824 5.77815 16.4692 5.21336 17.2559 4.69336C15.7771 3.62778 13.9619 3 12 3C11.1663 3 10.359 3.11304 9.59277 3.3252L12.0273 6.79199C12.3643 7.27176 12.3912 7.90384 12.0957 8.41016L10.2695 11.5361L10.2832 14.6895C10.2874 15.631 9.4333 16.3439 8.50781 16.1709L4.93457 15.502L3.96582 16.0615C5.45005 18.9917 8.49069 21 12 21C12.1512 21 12.3019 20.9966 12.4512 20.9893C13.0026 20.9623 13.4718 21.387 13.499 21.9385C13.5262 22.4901 13.1004 22.9592 12.5488 22.9863C12.3669 22.9953 12.184 23 12 23C5.92487 23 1 18.0751 1 12C1 5.92487 5.92487 1 12 1ZM12.8838 12.8838C13.162 12.6056 13.5775 12.5168 13.9453 12.6562L22.2949 15.8232C22.68 15.9696 22.9358 16.337 22.9395 16.749C22.9431 17.1612 22.6933 17.5335 22.3105 17.6865L19.0068 19.0068L17.6865 22.3115C17.5334 22.6941 17.1611 22.9431 16.749 22.9395C16.337 22.9358 15.9696 22.6801 15.8232 22.2949L12.6562 13.9453C12.5169 13.5775 12.6056 13.162 12.8838 12.8838Z" fill="black"/>
</svg>
